HIERARCHY
ROOT Hips
{
  OFFSET -31.5692 30.0904 122.763
  CHANNELS 6 Xposition Yposition Zposition Zrotation Xrotation Yrotation
  JOINT LeftUpLeg
  {
    OFFSET 8.64259 1.95398 -2.38835
    CHANNELS 3 Zrotation Xrotation Yrotation
    JOINT LeftLeg
    {
      OFFSET 43.7702 0 0
      CHANNELS 3 Zrotation Xrotation Yrotation
      JOINT LeftFoot
      {
        OFFSET 40.6238 0 0
        CHANNELS 3 Zrotation Xrotation Yrotation
        JOINT LeftToeBase
        {
          OFFSET 12.7242 0 0
          CHANNELS 3 Zrotation Xrotation Yrotation
          End Site
          {
            OFFSET 0 0 0
          }
        }
      }
    }
  }
  JOINT RightUpLeg
  {
    OFFSET -8.2249 1.95398 -2.59336
    CHANNELS 3 Zrotation Xrotation Yrotation
    JOINT RightLeg
    {
      OFFSET 43.5653 0 0
      CHANNELS 3 Zrotation Xrotation Yrotation
      JOINT RightFoot
      {
        OFFSET 40.6238 0 0
        CHANNELS 3 Zrotation Xrotation Yrotation
        JOINT RightToeBase
        {
          OFFSET 12.7242 0 0
          CHANNELS 3 Zrotation Xrotation Yrotation
          End Site
          {
            OFFSET 0 0 0
          }
        }
      }
    }
  }
  JOINT Spine
  {
    OFFSET 0.165834 0.87714 6.61349
    CHANNELS 3 Zrotation Xrotation Yrotation
    JOINT Spine1
    {
      OFFSET 7.38963 1.71661e-005 0
      CHANNELS 3 Zrotation Xrotation Yrotation
      JOINT Spine2
      {
        OFFSET 11.9445 1.14441e-005 0
        CHANNELS 3 Zrotation Xrotation Yrotation
        JOINT Spine3
        {
          OFFSET 14.7254 4.19617e-005 0
          CHANNELS 3 Zrotation Xrotation Yrotation
          JOINT Spine4
          {
            OFFSET 10.9679 0 0
            CHANNELS 3 Zrotation Xrotation Yrotation
            JOINT RightShoulder
            {
              OFFSET 2.46616 -1.6653 3.69651
              CHANNELS 3 Zrotation Xrotation Yrotation
              JOINT RightArm
              {
                OFFSET 13.0012 0 0
                CHANNELS 3 Zrotation Xrotation Yrotation
                JOINT RightForeArm
                {
                  OFFSET 28.7848 1.62311e-005 0
                  CHANNELS 3 Zrotation Xrotation Yrotation
                  JOINT RightHand
                  {
                    OFFSET 26.5688 1.62095e-005 0
                    CHANNELS 3 Zrotation Xrotation Yrotation
                    End Site
                    {
                      OFFSET 0 0 0
                    }
                  }
                }
              }
            }
            JOINT LeftShoulder
            {
              OFFSET 2.38034 -1.29275 -3.7523
              CHANNELS 3 Zrotation Xrotation Yrotation
              JOINT LeftArm
              {
                OFFSET 16.3182 6.07031e-005 0
                CHANNELS 3 Zrotation Xrotation Yrotation
                JOINT LeftForeArm
                {
                  OFFSET 27.0901 0 0
                  CHANNELS 3 Zrotation Xrotation Yrotation
                  JOINT LeftHand
                  {
                    OFFSET 24.5451 1.51738e-005 0
                    CHANNELS 3 Zrotation Xrotation Yrotation
                    End Site
                    {
                      OFFSET 0 0 0
                    }
                  }
                }
              }
            }
            JOINT Neck
            {
              OFFSET 5.0226 -0.0266342 0
              CHANNELS 3 Zrotation Xrotation Yrotation
              JOINT Head
              {
                OFFSET 6.69364 2.86102e-005 0
                CHANNELS 3 Zrotation Xrotation Yrotation
                End Site
                {
                  OFFSET 0 0 0
                }
              }
            }
          }
        }
      }
    }
  }
}
MOTION
Frames:	7
Frame Time:	0.0416667
-84.3376 97.4168 -85.989 101.033 -69.2649 98.8982 -172.139 11.875 90.781 -38.2748 30.6022 -0.810871 77.3153 12.6355 2.32792 23.5785 -1.21845 -3.29776 163.506 0.664953 82.4319 -41.8725 7.61172 3.01442 79.4625 -11.1613 -0.82684 32.1707 -2.12141 3.35584 1.13534 8.10137 -90.2661 10.6787 2.13853 -0.724469 -0.99071 2.10459 -0.817924 -23.54 2.25736 -0.0479361 -3.52731 2.25735 -0.0479412 88.5833 -28.9456 -110.008 29.8763 -10.2773 4.73816 -21.3172 -26.0127 -58.9685 -33.3111 4.85091 -29.082 -88.3985 -51.9053 81.4782 -6.67571 18.4929 -16.9641 -142.894 4.13536 -121.76 -7.87424 -7.67288 24.2788 22.8181 30.6989 -0.134331 -8.78374 29.351 7.42913 
-84.6003 98.4699 -85.0049 98.6507 -65.3314 97.0407 -172.805 10.4093 91.6273 -34.7253 34.5808 0.0939143 75.237 11.341 2.51957 24.2145 -1.24017 -2.48099 162.948 0.917119 82.6422 -40.4268 7.47623 4.16002 78.4549 -10.6784 -1.12628 31.967 -2.18256 4.2656 0.958414 8.02276 -90.4049 10.8364 1.72142 -0.965502 -0.833879 1.67724 -1.04034 -23.3774 1.93199 -0.403355 -3.36476 1.93197 -0.403371 88.6248 -29.3939 -109.73 30.448 -11.0298 4.5813 -15.3631 -33.3178 -48.0953 -30.8283 3.40263 -26.0879 -88.5172 -50.777 81.0938 -5.99279 14.7305 -23.9955 -143.295 3.88856 -121.544 -9.68125 -8.00499 24.1524 20.954 32.4957 0.305211 -8.03369 31.0477 8.18025 
-85.2276 99.4412 -84.0521 96.8026 -62.5402 95.5535 -173.239 8.84577 92.3431 -30.4487 38.0264 0.838772 73.1239 10.2058 3.54104 23.6848 -0.95678 -3.86179 163.059 0.716382 82.8006 -36.9387 10.5217 4.96183 77.8963 -9.81431 0.493123 31.1912 -1.85933 4.2644 0.883255 7.9073 -90.439 11.0663 1.55473 -1.02354 -0.604211 1.50818 -1.09098 -23.1458 1.79042 -0.508867 -3.13313 1.79045 -0.50886 88.6445 -30.2012 -109.35 31.753 -8.34805 5.5932 -9.51826 -39.1189 -36.736 -27.62 2.06989 -22.9914 -88.1592 -49.3015 81.3555 -6.32899 11.8522 -29.469 -144.206 2.8676 -122.386 -10.7277 -8.54456 25.2779 21.6759 33.6468 -0.476352 -9.25095 32.2791 8.6664 
-85.9661 100.039 -82.9212 96.0058 -60.5086 94.8773 -173.228 7.44914 93.1983 -27.4531 40.3175 1.3366 71.5321 8.9846 3.10845 25.2836 -0.620331 -2.85403 163.125 0.0306925 82.8086 -32.5533 9.48557 5.21577 75.9503 -9.50989 -1.87324 32.2996 -1.99203 2.22202 0.901259 7.84926 -90.4951 11.1831 1.56367 -1.13908 -0.487448 1.51203 -1.20681 -23.0287 1.83371 -0.616386 -3.01603 1.8337 -0.616378 89.1983 -29.6644 -108.481 33.7585 -7.524 7.35809 0.803524 -36.4009 -23.7651 -24.8016 1.67242 -21.5825 -88.0931 -48.1668 81.2436 -8.20627 9.34209 -34.2247 -142.933 1.93343 -122.073 -12.5761 -8.74544 24.2214 21.8948 34.5552 0.199235 -9.65983 32.9488 8.43656 
-87.0033 100.129 -81.8876 94.9912 -58.8607 93.5323 -173.117 7.15833 93.7961 -26.046 41.2691 1.5588 71.1476 8.41401 1.69344 26.16 -0.450872 -2.21658 163.263 0.0539056 82.4509 -29.7526 10.1048 4.81548 75.4846 -9.48728 -1.15635 32.7562 -2.3435 3.18437 0.867298 7.79546 -90.4447 11.2899 1.51888 -1.03657 -0.380641 1.47179 -1.10242 -22.9218 1.76018 -0.53207 -2.90914 1.76017 -0.532076 89.7078 -29.1522 -107.666 35.7454 -6.74392 9.59334 6.21361 -33.8325 -16.3771 -23.1089 1.22922 -19.3965 -87.9332 -48.1048 81.4776 -9.58557 7.51911 -37.9838 -141.21 0.355506 -122.626 -13.8787 -8.6506 22.5555 21.6732 35.0196 0.311667 -9.95009 33.3492 8.72241 
-88.5198 99.9697 -80.6531 94.5032 -57.6371 92.5272 -172.953 6.81468 94.3471 -24.9651 44.289 1.93652 70.4164 8.53118 4.11431 28.3344 0.602422 -2.46221 163.541 -0.0848634 82.5222 -27.9649 9.35042 4.26873 74.1163 -9.03227 -1.26182 33.2391 -2.5436 3.15009 0.84533 7.82316 -90.4019 11.2337 1.49539 -0.947612 -0.4368 1.45224 -1.01252 -22.978 1.71104 -0.454281 -2.96533 1.71105 -0.45429 90.383 -28.2218 -106.679 37.7968 -6.0644 11.2652 8.97911 -31.4117 -12.0555 -23.2368 1.02131 -17.3983 -88.6272 -48.966 80.5824 -10.3017 5.93645 -41.1979 -139.575 -3.40444 -124.291 -14.9288 -8.2986 20.3043 21.3112 33.3006 0.751429 -9.01159 31.6737 7.35054 
-90.4248 99.6282 -79.1224 94.2444 -57.0599 90.979 -172.95 5.59788 94.5911 -22.7965 43.7832 2.26028 70.8078 8.36003 2.23837 29.7018 0.641738 -0.655668 163.372 -0.111885 82.1721 -27.0214 10.083 4.20814 73.2521 -8.19209 0.579934 33.2071 -2.44495 2.58684 0.681515 7.81118 -90.1424 11.2544 1.29008 -0.411168 -0.416019 1.27073 -0.467567 -22.9563 1.35401 -0.00436538 -2.94366 1.354 -0.00438251 90.4549 -28.2331 -106.528 39.5808 -5.17969 12.5232 9.77523 -29.9795 -9.98498 -21.2565 0.875976 -17.2888 -88.7108 -49.7524 80.6096 -10.0058 4.48054 -42.8237 -139.05 -8.83 -126.839 -14.1061 -7.29358 17.2422 20.1262 26.6763 -0.957844 -8.22108 25.8857 5.15009 
